<svg id="Layer_1" data-name="Layer 1" xmlns="http://www.w3.org/2000/svg" viewBox="0 0 14.82 11.68"><defs><style>.cls-1{fill:#1c2333;}.cls-2{font-size:3.1px;font-family:MyriadPro-Regular, Myriad Pro;}.cls-3{letter-spacing:-0.03em;}</style></defs><path class="cls-1" d="M9.15.85V7.36a.38.38,0,0,1-.26.37H8.81a.36.36,0,0,1-.35-.38A8.35,8.35,0,0,0,8.7,4.87,4.12,4.12,0,0,1,8.21,3.1c0-1.7.4-2.31.67-2.45h0A.2.2,0,0,1,9.15.85Z"/><path class="cls-1" d="M6.93.67a17.52,17.52,0,0,1,.16,2c0,.63-.13.62-.5.77l.14,3.92a.37.37,0,0,1-.35.38h0A.36.36,0,0,1,6,7.38l.14-3.92c-.37-.15-.5-.14-.5-.77a17.18,17.18,0,0,1,.16-2h.09l0,2.22h.18l0-2.22h.09l0,2.22h.18l0-2.22h.1l0,2.22h.18l0-2.22Z"/><text class="cls-2" transform="translate(4.13 10.27)"><tspan class="cls-3">F</tspan><tspan x="1.42" y="0">ood</tspan></text></svg>